<!DOCTYPE svg PUBLIC "-//W3C//DTD SVG 1.1//EN" "http://www.w3.org/Graphics/SVG/1.1/DTD/svg11.dtd">
<!-- Uploaded to: SVG Repo, www.svgrepo.com, Transformed by: SVG Repo Mixer Tools -->
<svg width="800px" height="800px" viewBox="-0.03 0 20.052 20.052" xmlns="http://www.w3.org/2000/svg" fill="#fcc4f9">
<g id="SVGRepo_bgCarrier" stroke-width="0"/>
<g id="SVGRepo_tracerCarrier" stroke-linecap="round" stroke-linejoin="round"/>
<g id="SVGRepo_iconCarrier"> <g id="add-user-9" transform="translate(-2 -1.948)"> <path id="secondary" fill="#fcc4f9" d="M15.94,14.22a1,1,0,0,1-.28-1.45,5.91,5.91,0,0,0,.88-1.47,5.5,5.5,0,0,1-4-5.3,5.37,5.37,0,0,1,.65-2.58A5.85,5.85,0,0,0,11.73,3,6,6,0,0,0,5,9a5.94,5.94,0,0,0,1.34,3.77,1,1,0,0,1-.28,1.45A7,7,0,0,0,3,20a1,1,0,0,0,1,1H18a1,1,0,0,0,1-1,7,7,0,0,0-3.06-5.78Z"/> <path id="primary" d="M17,5h4M19,3V7" fill="none" stroke="#000000" stroke-linecap="round" stroke-linejoin="round" stroke-width="2"/> <path id="primary-2" data-name="primary" d="M16.65,11a5.71,5.71,0,0,1-1,1.77,1,1,0,0,0,.28,1.45A7,7,0,0,1,19,20a1,1,0,0,1-1,1H4a1,1,0,0,1-1-1,7,7,0,0,1,3.06-5.78,1,1,0,0,0,.28-1.45A5.94,5.94,0,0,1,5,9a6,6,0,0,1,6.73-6A5.47,5.47,0,0,1,13,3.3" fill="none" stroke="#000000" stroke-linecap="round" stroke-linejoin="round" stroke-width="2"/> </g> </g>
</svg>