<?xml version="1.0" encoding="utf-8"?>
<!-- Designed by Vexels.com - 2020 All Rights Reserved - https://vexels.com/terms-and-conditions/  -->
<svg version="1.1" id="Layer_1" xmlns="http://www.w3.org/2000/svg" xmlns:xlink="http://www.w3.org/1999/xlink" x="0px" y="0px"
	 viewBox="0 0 1200 1200" enable-background="new 0 0 1200 1200" xml:space="preserve">
<g>
	<path fill="#CA7EBF" d="M1133.18,1008.979c-23.503-115.167-126.919-162.174-126.919-162.174s105.766-9.401,96.364-96.364
		c0,0-54.058,35.256-94.014-9.401c-39.956-44.657-21.153-131.62,75.211-274.991c96.364-143.371-49.357-279.692-157.473-263.239
		c-108.116,16.452-216.232,42.306-242.086-32.905c-24.954-72.593-60.866-99.184-130.961-60.797
		c5.761,9.952,10.567,20.571,14.567,29.387c4.979,10.972,8.739,21.898,10.797,33.084c11.851,13.509,40.961,52.397,36.262,104.092
		c-8.206,90.27,38.781,76.974,43.481,92.251c0,0,1.175,22.329-22.72,35.451c0,0-1.959,19.782,15.081,23.895
		c0,0,1.763,16.453-13.514,23.504c0,0,9.989,12.34,7.639,25.266c0,0-12.339,3.526-13.514,9.401
		c-1.175,5.876-0.588,16.452,2.938,32.905c3.526,16.453,1.763,47.594-108.704,28.792c0,0,4.701,79.912,14.102,104.59
		c7.834,20.565,64.604,32.96,94.883,35.164c-15.053,10.369-29.677,20.734-47.78,25.917c-9.215,2.638-18.714,3.062-28.095,4.752
		c-7.796,1.405-14.862,4.499-22.14,3.248c-23.674-4.069-52.643-4.917-72.242,11.857c-24.834-14.299-39.541-34.115-36.267-60.96
		c11.752-96.364,23.504-151.597-14.102-188.028c0,0-32.905,17.627-51.708-45.832c-18.803-63.459,19.978-72.861,55.233-59.934
		c0,0,62.284-22.328,97.539-77.562c27.163-42.556,47.337-99.028,55.173-122.726c-2.497-12.177-6.542-24.039-11.879-35.316
		c-6.69-14.134-17.933-27.297-25.373-41.434c-28.613-25.302-105.601-76.451-228.276-35.559
		C146.034,118.197-27.892,363.808,115.479,664.653c58.754,111.418,169.933,168.336,296.643,203.286
		c-25.1-14.329-48.818-31.069-70.606-48.978c-94.756-77.887-157.837-189.779-176.576-310.925
		c-17.992-116.323,3.266-262.906,119.06-321.77c3.757-1.91,2.52,3.274-1.059,5.38c-61.718,36.31-92.902,104.087-104.311,173.168
		c-19.371,117.283,13.603,243.625,80.162,341.058c31.319,45.846,70.593,85.971,115.487,118.616
		c33.906,24.655,70.568,43.76,108.539,60.584c275.126,58.769,588.98,46.982,601.005,264.929
		C1083.823,1150,1156.684,1124.146,1133.18,1008.979z M892.27,513.055c0,0,35.255,56.409,27.029,105.766
		c-8.226,49.357-38.781,149.247-24.679,192.729c0,0-70.946-60.481-153.851-54.697c8.2-8.824,15.439-18.318,21.512-26.192
		c20.757-26.913,35.141-57.401,44.21-90.061c1.115-4.014-2.783-3.888-4.122-0.038c-9.124,26.244-24.201,49.505-40.348,72.11
		c-10.374,14.523-24.298,33.519-40.59,46.643c-62.597,9.86-180.539,12.866-251.637-23.564c11.812-7.78,40.301-15.299,61.697-6.464
		c5.591,2.309,9.331,2.478,16.452,0.588c19.196-5.098,38.778-3.345,57.126-11.622c16.199-7.307,40.413-28.334,45.577-34.945
		c6.94-15.479,34.538-76.121,52.42-102.093c10.043-14.586,21.252-24.305,31.017-30.704c17.753-13.952,40.1-14.034,61.822-4.551
		c3.683,1.608,7.326,0.867,4.113-1.175c-18.662-11.863-43.951-14.826-67.266-7.48c-7.885-3.088-13.974-9.664-12.058-23.075
		c0,0-10.577-14.102-3.526-24.679c0,0-9.401-5.876-10.577-12.927l8.226-15.277c0,0-12.927-7.051-11.752-21.153
		c1.175-14.102,21.153-16.452,21.153-32.905c0-16.452-18.803-35.255,12.927-83.437c31.73-48.182,145.722-88.138,208.006-18.803
		C1007.437,374.385,986.284,491.902,892.27,513.055z"/>
</g>
</svg>
