<?xml version="1.0" encoding="iso-8859-1"?>
<!-- Uploaded to: SVG Repo, www.svgrepo.com, Generator: SVG Repo Mixer Tools -->
<!DOCTYPE svg PUBLIC "-//W3C//DTD SVG 1.1//EN" "http://www.w3.org/Graphics/SVG/1.1/DTD/svg11.dtd">
<svg fill="#000000" version="1.1" id="Capa_1" xmlns="http://www.w3.org/2000/svg" xmlns:xlink="http://www.w3.org/1999/xlink" 
	 width="800px" height="800px" viewBox="0 0 498.41 498.41"
	 xml:space="preserve">
<g>
	<g>
		<path d="M182.084,104.155c2.568,0.382,5.166,0.571,7.763,0.571c18.022,0,35.11-9.552,44.581-24.882
			c9.605-15.547,10.314-35.571,1.828-51.76c-8.318-15.869-24.612-26.621-42.489-27.944c-18.068-1.338-35.88,6.967-46.46,21.676
			c-10.668,14.831-12.787,34.73-5.475,51.478C148.975,89.652,164.421,101.53,182.084,104.155z"/>
		<path d="M321.973,228.975c6.248,5.966,14.677,9.342,23.314,9.342c8.996,0,17.748-3.667,24.059-10.076
			c6.324-6.422,9.851-15.245,9.703-24.255c-0.147-8.981-3.953-17.66-10.449-23.862c-6.526-6.232-15.42-9.617-24.438-9.322
			c-8.962,0.294-17.567,4.235-23.658,10.814c-6.141,6.634-9.385,15.593-8.939,24.619C311.984,214.82,315.757,223.04,321.973,228.975
			z"/>
		<path d="M408.727,338.684c0.003,0.111,0.005,0.109-0.002-0.153c-0.025-0.952-0.023-0.843-0.018-0.524
			c-0.725-24.513-5.252-49.663-19.545-70.142c-6.559-9.396-15.47-17.399-25.777-22.556c-15.828-7.918-25.305-6.991-41.896,4.573
			c-5.072,3.536-9.572,7.82-14.644,11.362c-5.813,4.063-11.949,7.955-18.598,10.509c0.139-12.11-0.32-24.156-1.484-36.215
			c-1.262-12.716-3.679-25.202-6.945-37.547c-3.279-12.393-8.211-24.604-14.479-35.784c-6.033-10.762-13.49-20.867-22.469-29.36
			c-7.416-7.013-15.701-13.19-24.989-17.474c-17.533-8.086-38.783-8.753-55.706-0.236c-21.715,10.929-38.861,29.417-50.33,50.517
			c-12.139,22.33-18.264,47.652-20.777,72.804c-1.303,13.024-1.512,26.028-1.386,39.105c0.105,8.228,6.882,15.158,15.113,15.396
			c8.151,0.236,15.264-6.144,15.936-14.265c0.814-9.974,1.878-19.852,3.423-29.741c1.949-12.479,5.295-24.817,9.691-36.646
			c1.156-3.111,2.419-6.206,3.827-9.213l0.767,37.896l-24.932,132.949c-0.481,2.465,0.155,4.99,1.749,6.927
			c1.597,1.938,3.95,3.051,6.462,3.051h20.242l4.705,97.229c0.479,9.26,8.184,16.911,17.461,17.252
			c9.135,0.334,17.313-6.477,18.611-15.53c0.08-0.551,0.133-1.104,0.162-1.66l5.039-97.289h3.98l4.705,97.229
			c0.48,9.259,8.184,16.911,17.462,17.252c9.136,0.334,17.312-6.477,18.612-15.53c0.078-0.551,0.133-1.104,0.161-1.66l5.038-97.289
			h19.624c2.504,0,4.856-1.107,6.452-3.04c1.595-1.934,2.237-4.452,1.751-6.961l-24.302-132.625l0.595-37.502
			c9.375,22.307,13.027,47.805,15.011,71.764c0.045,0.527,0.088,1.058,0.131,1.586c0.542,6.295,4.848,11.522,10.669,13.424
			c6.176,4.741,14.245,5.552,21.753,4.556c7.645-1.015,15.017-3.639,22.062-6.692l0.058,30.307l-18.497,96.091
			c-0.376,1.926,0.12,3.898,1.365,5.413c1.248,1.516,3.09,2.385,5.052,2.385h15.119l2.832,58.536
			c0.316,6.115,5.508,11.104,11.637,11.133c6.162,0.028,11.41-4.94,11.729-11.093l3.032-58.576h2.986l2.831,58.536
			c0.317,6.114,5.509,11.104,11.638,11.133c6.162,0.028,11.41-4.94,11.729-11.093l3.031-58.576h14.119
			c1.957,0,3.797-0.866,5.043-2.377s1.749-3.479,1.369-5.44l-17.944-94.815l0.157-16.676c6.183,14.692,8.518,30.513,9.765,46.297
			c0.455,5.29,5.148,9.382,10.444,9.146c5.248-0.233,9.518-4.665,9.572-9.912C408.746,345.452,408.791,342.068,408.727,338.684z"/>
	</g>
</g>
</svg>