<!DOCTYPE svg PUBLIC "-//W3C//DTD SVG 1.1//EN" "http://www.w3.org/Graphics/SVG/1.1/DTD/svg11.dtd">
<!-- Uploaded to: SVG Repo, www.svgrepo.com, Transformed by: SVG Repo Mixer Tools -->
<svg version="1.1" id="Layer_1" xmlns="http://www.w3.org/2000/svg" xmlns:xlink="http://www.w3.org/1999/xlink" viewBox="0 0 512 512" xml:space="preserve" width="800px" height="800px" fill="#000000">
<g id="SVGRepo_bgCarrier" stroke-width="0"/>
<g id="SVGRepo_tracerCarrier" stroke-linecap="round" stroke-linejoin="round"/>
<g id="SVGRepo_iconCarrier"> <rect x="68" y="4" style="fill:#FFFFFF;" width="376" height="504"/> <path style="fill: #ff97fa;" d="M440,8v496H72V8H440 M448,0H64v512h384V0L448,0z"/> <g> <polygon style="fill:#999999;" points="292.048,431.344 256,468.632 219.952,431.344 231.208,420.208 256,445.848 280.792,420.208 "/> <rect x="106.744" y="109.336" style="fill:#999999;" width="298.48" height="10.664"/> <rect x="106.744" y="141.336" style="fill:#999999;" width="298.48" height="10.664"/> <rect x="106.744" y="173.336" style="fill:#999999;" width="298.48" height="10.664"/> <rect x="106.744" y="205.336" style="fill:#999999;" width="298.48" height="10.664"/> <rect x="106.736" y="237.336" style="fill:#999999;" width="298.48" height="10.664"/> <rect x="106.736" y="269.336" style="fill:#999999;" width="298.48" height="10.664"/> <rect x="106.736" y="301.336" style="fill:#999999;" width="298.48" height="10.664"/> <rect x="106.736" y="333.336" style="fill:#999999;" width="298.48" height="10.664"/> </g> <rect x="106.744" y="40" style="fill: #ff97fa;" width="298.48" height="32"/> <rect x="106.736" y="365.336" style="fill:#999999;" width="298.48" height="10.664"/> </g>
</svg>