<?xml version="1.0" encoding="UTF-8" standalone="no"?>
<!-- Uploaded to: SVG Repo, www.svgrepo.com, Generator: SVG Repo Mixer Tools -->

<svg
   fill="#000000"
   version="1.1"
   id="Capa_1"
   width="512.20294"
   height="800.00342"
   viewBox="0 0 319.10884 498.41213"
   xml:space="preserve"
   sodipodi:docname="4b1638f9e9009a6b9250f8e7263aa785.svg"
   xmlns:inkscape="http://www.inkscape.org/namespaces/inkscape"
   xmlns:sodipodi="http://sodipodi.sourceforge.net/DTD/sodipodi-0.dtd"
   xmlns="http://www.w3.org/2000/svg"
   xmlns:svg="http://www.w3.org/2000/svg"><defs
   id="defs15" /><sodipodi:namedview
   id="namedview13"
   pagecolor="#ffffff"
   bordercolor="#666666"
   borderopacity="1.0"
   inkscape:pageshadow="2"
   inkscape:pageopacity="0.0"
   inkscape:pagecheckerboard="0" />
<g
   id="g10"
   transform="translate(-89.650356,3.4005831e-4)">
	<g
   id="g8">
		<path
   d="m 182.084,104.155 c 2.568,0.382 5.166,0.571 7.763,0.571 18.022,0 35.11,-9.552 44.581,-24.882 9.605,-15.547 10.314,-35.571 1.828,-51.76 C 227.938,12.215 211.644,1.463 193.767,0.14 c -18.068,-1.338 -35.88,6.967 -46.46,21.676 -10.668,14.831 -12.787,34.73 -5.475,51.478 7.143,16.358 22.589,28.236 40.252,30.861 z"
   id="path2" />
		<path
   d="m 321.973,228.975 c 6.248,5.966 14.677,9.342 23.314,9.342 8.996,0 17.748,-3.667 24.059,-10.076 6.324,-6.422 9.851,-15.245 9.703,-24.255 -0.147,-8.981 -3.953,-17.66 -10.449,-23.862 -6.526,-6.232 -15.42,-9.617 -24.438,-9.322 -8.962,0.294 -17.567,4.235 -23.658,10.814 -6.141,6.634 -9.385,15.593 -8.939,24.619 0.419,8.585 4.192,16.805 10.408,22.74 z"
   id="path4" />
		<path
   d="m 408.727,338.684 c 0.003,0.111 0.005,0.109 -0.002,-0.153 -0.025,-0.952 -0.023,-0.843 -0.018,-0.524 -0.725,-24.513 -5.252,-49.663 -19.545,-70.142 -6.559,-9.396 -15.47,-17.399 -25.777,-22.556 -15.828,-7.918 -25.305,-6.991 -41.896,4.573 -5.072,3.536 -9.572,7.82 -14.644,11.362 -5.813,4.063 -11.949,7.955 -18.598,10.509 0.139,-12.11 -0.32,-24.156 -1.484,-36.215 -1.262,-12.716 -3.679,-25.202 -6.945,-37.547 -3.279,-12.393 -8.211,-24.604 -14.479,-35.784 -6.033,-10.762 -13.49,-20.867 -22.469,-29.36 -7.416,-7.013 -15.701,-13.19 -24.989,-17.474 -17.533,-8.086 -38.783,-8.753 -55.706,-0.236 -21.715,10.929 -38.861,29.417 -50.33,50.517 -12.139,22.33 -18.264,47.652 -20.777,72.804 -1.303,13.024 -1.512,26.028 -1.386,39.105 0.105,8.228 6.882,15.158 15.113,15.396 8.151,0.236 15.264,-6.144 15.936,-14.265 0.814,-9.974 1.878,-19.852 3.423,-29.741 1.949,-12.479 5.295,-24.817 9.691,-36.646 1.156,-3.111 2.419,-6.206 3.827,-9.213 l 0.767,37.896 -24.932,132.949 c -0.481,2.465 0.155,4.99 1.749,6.927 1.597,1.938 3.95,3.051 6.462,3.051 h 20.242 l 4.705,97.229 c 0.479,9.26 8.184,16.911 17.461,17.252 9.135,0.334 17.313,-6.477 18.611,-15.53 0.08,-0.551 0.133,-1.104 0.162,-1.66 l 5.039,-97.289 h 3.98 l 4.705,97.229 c 0.48,9.259 8.184,16.911 17.462,17.252 9.136,0.334 17.312,-6.477 18.612,-15.53 0.078,-0.551 0.133,-1.104 0.161,-1.66 l 5.038,-97.289 h 19.624 c 2.504,0 4.856,-1.107 6.452,-3.04 1.595,-1.934 2.237,-4.452 1.751,-6.961 l -24.302,-132.625 0.595,-37.502 c 9.375,22.307 13.027,47.805 15.011,71.764 0.045,0.527 0.088,1.058 0.131,1.586 0.542,6.295 4.848,11.522 10.669,13.424 6.176,4.741 14.245,5.552 21.753,4.556 7.645,-1.015 15.017,-3.639 22.062,-6.692 l 0.058,30.307 -18.497,96.091 c -0.376,1.926 0.12,3.898 1.365,5.413 1.248,1.516 3.09,2.385 5.052,2.385 h 15.119 l 2.832,58.536 c 0.316,6.115 5.508,11.104 11.637,11.133 6.162,0.028 11.41,-4.94 11.729,-11.093 l 3.032,-58.576 h 2.986 l 2.831,58.536 c 0.317,6.114 5.509,11.104 11.638,11.133 6.162,0.028 11.41,-4.94 11.729,-11.093 l 3.031,-58.576 h 14.119 c 1.957,0 3.797,-0.866 5.043,-2.377 1.246,-1.511 1.749,-3.479 1.369,-5.44 l -17.944,-94.815 0.157,-16.676 c 6.183,14.692 8.518,30.513 9.765,46.297 0.455,5.29 5.148,9.382 10.444,9.146 5.248,-0.233 9.518,-4.665 9.572,-9.912 0.037,-3.398 0.082,-6.782 0.018,-10.166 z"
   id="path6" />
	</g>
</g>
</svg>
